HIERARCHY
ROOT Hips
{
	OFFSET 0.000000 0.000000 0.000000
	CHANNELS 6 Xposition Yposition Zposition Xrotation Yrotation Zrotation
	JOINT Spine1
	{
		OFFSET 0.000000 4.165422 0.000004
		CHANNELS 6 Xposition Yposition Zposition Xrotation Yrotation Zrotation
		JOINT Neck
		{
			OFFSET 0.000000 3.320820 0.000004
			CHANNELS 6 Xposition Yposition Zposition Xrotation Yrotation Zrotation
			JOINT Head
			{
				OFFSET 0.000000 2.111520 0.272454
				CHANNELS 6 Xposition Yposition Zposition Xrotation Yrotation Zrotation
				End Site
				{
					OFFSET 0.000000 2.724534 0.000000
				}
			}
		}
		JOINT LeftShoulder
		{
			OFFSET 0.548650 2.681386 -0.072018
			CHANNELS 6 Xposition Yposition Zposition Xrotation Yrotation Zrotation
			JOINT LeftArm
			{
				OFFSET 1.957740 0.000000 0.000000
				CHANNELS 6 Xposition Yposition Zposition Xrotation Yrotation Zrotation
				JOINT LeftForeArm
				{
					OFFSET 3.838816 0.000000 0.000000
					CHANNELS 6 Xposition Yposition Zposition Xrotation Yrotation Zrotation
					JOINT LeftHand
					{
						OFFSET 3.567674 0.000000 0.000000
						CHANNELS 6 Xposition Yposition Zposition Xrotation Yrotation Zrotation
						End Site
						{
							OFFSET 2.043400 0.000000 0.000000
						}
					}
				}
			}
		}
		JOINT RightShoulder
		{
			OFFSET -0.541082 2.681386 -0.072018
			CHANNELS 6 Xposition Yposition Zposition Xrotation Yrotation Zrotation
			JOINT RightArm
			{
				OFFSET -1.957740 0.000000 0.000000
				CHANNELS 6 Xposition Yposition Zposition Xrotation Yrotation Zrotation
				JOINT RightForeArm
				{
					OFFSET -3.838814 0.000000 0.000000
					CHANNELS 6 Xposition Yposition Zposition Xrotation Yrotation Zrotation
					JOINT RightHand
					{
						OFFSET -3.567676 0.000000 0.000000
						CHANNELS 6 Xposition Yposition Zposition Xrotation Yrotation Zrotation
						End Site
						{
							OFFSET -2.043400 0.000000 0.000000
						}
					}
				}
			}
		}
	}
	JOINT LeftUpLeg
	{
		OFFSET 1.362270 0.000000 0.000000
		CHANNELS 6 Xposition Yposition Zposition Xrotation Yrotation Zrotation
		JOINT LeftLeg
		{
			OFFSET 0.000000 -5.729236 -0.000004
			CHANNELS 6 Xposition Yposition Zposition Xrotation Yrotation Zrotation
			JOINT LeftFoot
			{
				OFFSET 0.000000 -6.006450 -0.000004
				CHANNELS 6 Xposition Yposition Zposition Xrotation Yrotation Zrotation
				JOINT LeftToeBase
				{
					OFFSET 0.000000 -0.885476 2.043404
					CHANNELS 6 Xposition Yposition Zposition Xrotation Yrotation Zrotation
					End Site
					{
						OFFSET 0.000000 0.000000 0.544908
					}
				}
			}
		}
	}
	JOINT RightUpLeg
	{
		OFFSET -1.362270 0.000000 0.000000
		CHANNELS 6 Xposition Yposition Zposition Xrotation Yrotation Zrotation
		JOINT RightLeg
		{
			OFFSET 0.000000 -5.729236 -0.000004
			CHANNELS 6 Xposition Yposition Zposition Xrotation Yrotation Zrotation
			JOINT RightFoot
			{
				OFFSET 0.000000 -6.006450 -0.000004
				CHANNELS 6 Xposition Yposition Zposition Xrotation Yrotation Zrotation
				JOINT RightToeBase
				{
					OFFSET 0.000000 -0.885476 2.043404
					CHANNELS 6 Xposition Yposition Zposition Xrotation Yrotation Zrotation
					End Site
					{
						OFFSET 0.000000 0.000000 0.544908
					}
				}
			}
		}
	}
}
MOTION
Frames: 5
Frame Time: 0.016667
1.704794 11.200912 -0.235411 10.478289 -4.024164 4.636980 0.000000 4.165420 0.000002 -5.600200 4.070269 4.271742 0.000001 3.320816 0.000001 6.589930 -3.864261 -0.869571 -0.000001 2.111524 0.272456 17.970468 -3.810409 8.455046 0.548649 2.681379 -0.072018 -7.751454 -0.110467 18.311093 1.957741 -0.000001 -0.000000 7.711891 -19.596159 -18.710338 3.838813 0.000005 -0.000002 4.489579 -42.297186 35.291236 3.567678 0.000003 -0.000000 -10.469754 3.386141 30.698620 -0.541080 2.681383 -0.072018 -5.828797 2.667379 -13.301140 -1.957741 -0.000002 -0.000000 -1.110632 58.231980 55.569722 -3.838818 -0.000001 -0.000001 163.751818 66.368204 -198.697183 -3.567675 -0.000002 -0.000007 -44.640214 -1.912951 -7.957278 1.362270 -0.000001 -0.000000 -31.002075 19.389111 21.362014 0.000000 -5.729232 -0.000001 39.157785 9.360703 -15.349653 -0.000002 -6.006451 -0.000004 -8.131333 18.014354 -0.778803 -0.000001 -0.885476 2.043403 -0.000001 -0.000009 -0.000003 -1.362270 -0.000002 -0.000000 -21.570868 7.504577 -35.520740 0.000002 -5.729235 -0.000002 32.840451 -22.951848 30.996276 0.000003 -6.006454 -0.000004 1.369877 -27.980143 8.770344 0.000000 -0.885476 2.043404 -0.000002 -0.000001 -0.000001 
1.702528 11.201672 -0.239377 10.416866 -3.971869 4.579272 0.000000 4.165418 0.000004 -5.464856 4.255166 4.223311 0.000000 3.320815 0.000004 6.704363 -4.266884 -0.841513 0.000000 2.111521 0.272454 18.579506 -4.156544 9.072704 0.548649 2.681380 -0.072018 -7.732460 -0.214798 18.180920 1.957741 0.000000 -0.000000 7.745931 -20.013791 -18.839403 3.838813 -0.000002 0.000000 5.372069 -42.842853 36.404014 3.567672 0.000003 0.000001 -10.205100 3.125047 31.313453 -0.541080 2.681382 -0.072018 -5.802156 2.783863 -13.172307 -1.957740 -0.000008 -0.000000 -0.206658 59.762598 55.044959 -3.838816 -0.000001 -0.000001 165.538883 66.306090 -200.673553 -3.567676 -0.000004 0.000002 -45.727915 -0.830888 -8.866213 1.362270 -0.000004 0.000000 -30.984818 19.323346 21.388696 -0.000001 -5.729230 -0.000002 39.149340 9.331350 -15.327590 -0.000002 -6.006450 -0.000004 -8.115137 18.033545 -0.809928 0.000000 -0.885474 2.043404 -0.000002 -0.000009 0.000000 -1.362270 -0.000003 0.000000 -20.848625 8.161567 -35.589432 0.000002 -5.729233 -0.000004 32.766323 -23.630163 31.596592 0.000001 -6.006450 -0.000004 1.352605 -28.166892 8.654551 0.000000 -0.885476 2.043403 -0.000002 -0.000003 -0.000001 
1.699862 11.202488 -0.244763 10.371227 -3.907623 4.495782 -0.000000 4.165424 0.000004 -5.295447 4.396231 4.174634 -0.000000 3.320822 0.000001 6.770113 -4.661982 -0.817644 0.000000 2.111530 0.272453 19.156782 -4.492130 9.677542 0.548649 2.681386 -0.072018 -7.770185 -0.282456 18.093963 1.957740 0.000003 -0.000000 7.844662 -20.417662 -19.006053 3.838815 -0.000002 -0.000002 6.396291 -43.327237 37.716591 3.567670 0.000000 -0.000000 -9.910267 3.010440 31.687959 -0.541082 2.681386 -0.072018 -5.828914 2.938188 -13.079169 -1.957741 -0.000001 0.000000 0.866081 60.803307 54.538876 -3.838819 -0.000002 -0.000001 169.168090 65.613475 -203.886720 -3.567677 -0.000002 0.000000 -47.292298 -1.965672 -7.403695 1.362270 0.000000 0.000000 -31.010674 19.243004 21.439650 0.000000 -5.729231 -0.000002 39.141024 9.242451 -15.296683 -0.000001 -6.006451 -0.000004 -8.110038 18.095550 -0.785497 0.000002 -0.885477 2.043403 0.000000 -0.000004 0.000002 -1.362270 0.000001 -0.000000 -20.814568 8.084784 -35.506530 0.000001 -5.729236 -0.000002 32.766265 -23.690026 31.585783 0.000003 -6.006450 -0.000004 1.383012 -28.137321 8.678332 -0.000000 -0.885476 2.043404 0.000003 -0.000001 0.000003 
1.697610 11.202554 -0.249421 10.307480 -3.833749 4.422096 -0.000000 4.165420 0.000004 -5.139533 4.557090 4.119620 0.000000 3.320825 0.000001 6.896050 -5.052612 -0.818263 -0.000000 2.111520 0.272454 19.667622 -4.820981 10.354575 0.548649 2.681391 -0.072018 -7.751317 -0.401730 17.989528 1.957740 -0.000002 -0.000000 7.877061 -20.734636 -19.195439 3.838814 -0.000002 -0.000001 7.356497 -43.993774 38.973712 3.567671 -0.000005 0.000003 -9.712173 2.772752 32.149253 -0.541082 2.681388 -0.072018 -5.831351 3.065601 -12.968726 -1.957741 -0.000004 0.000002 2.104817 61.923909 53.724700 -3.838816 0.000001 -0.000000 172.273394 65.064560 -206.668233 -3.567677 -0.000004 -0.000000 -48.625435 -2.172012 -6.869946 1.362270 -0.000002 -0.000000 -31.043343 19.213718 21.483721 -0.000001 -5.729234 -0.000002 39.163868 9.223722 -15.232929 -0.000002 -6.006451 -0.000003 -8.097038 18.045780 -0.795959 -0.000000 -0.885476 2.043403 0.000001 0.000001 0.000004 -1.362270 0.000000 -0.000000 -21.011221 7.729843 -35.422812 -0.000001 -5.729233 -0.000002 32.814531 -23.482216 31.389227 0.000002 -6.006449 -0.000003 1.418856 -28.021667 8.729290 0.000000 -0.885476 2.043404 0.000002 0.000005 -0.000001 
1.696150 11.202540 -0.254261 10.266182 -3.756697 4.352381 0.000000 4.165420 0.000004 -4.998532 4.701991 4.049865 -0.000000 3.320815 0.000001 6.987178 -5.454807 -0.759224 0.000000 2.111524 0.272453 20.216105 -5.154002 10.909198 0.548649 2.681378 -0.072018 -7.768394 -0.508001 17.883431 1.957742 0.000005 0.000000 7.869588 -21.025040 -19.411657 3.838814 -0.000003 -0.000003 8.500080 -44.582953 40.328394 3.567672 -0.000003 0.000002 -9.364309 2.545176 32.526860 -0.541081 2.681380 -0.072018 -5.876889 3.237741 -12.890560 -1.957742 -0.000003 0.000002 3.640312 63.224554 52.603942 -3.838816 -0.000001 -0.000000 175.755507 64.367710 -209.694608 -3.567680 0.000001 -0.000000 -50.050011 -1.828575 -7.585515 1.362270 -0.000002 0.000000 -31.067894 19.139011 21.516334 0.000001 -5.729234 -0.000002 39.163065 9.160639 -15.209247 -0.000002 -6.006453 -0.000006 -8.103545 18.073007 -0.773344 -0.000000 -0.885476 2.043405 0.000001 -0.000001 0.000002 -1.362270 -0.000003 0.000000 -20.672158 7.971484 -35.433427 0.000001 -5.729236 -0.000002 32.785728 -23.814274 31.676266 0.000002 -6.006452 -0.000004 1.424212 -28.089732 8.696136 -0.000000 -0.885476 2.043406 -0.000002 -0.000008 -0.000001 
